<?xml version="1.0" standalone="no"?>
<!DOCTYPE svg PUBLIC "-//W3C//DTD SVG 20010904//EN"
 "http://www.w3.org/TR/2001/REC-SVG-20010904/DTD/svg10.dtd">
<svg version="1.0" xmlns="http://www.w3.org/2000/svg"
 width="740.000000pt" height="740.000000pt" viewBox="0 0 740.000000 740.000000"
 preserveAspectRatio="xMidYMid meet">
<metadata>
Created by potrace 1.14, written by Peter Selinger 2001-2017
</metadata>
<g transform="translate(0.000000,740.000000) scale(0.100000,-0.100000)"
fill="#000000" stroke="none">
<path d="M1370 6324 c-96 -35 -157 -96 -200 -204 -77 -192 -161 -232 -495
-234 -110 0 -206 -5 -213 -9 -18 -12 -18 -1422 1 -1434 6 -4 172 -8 367 -9
195 -1 357 -2 360 -3 8 -2 6 -1738 -2 -1746 -8 -9 -623 -9 -636 -1 -5 3 -9
234 -9 537 0 467 -2 533 -16 546 -13 14 -51 16 -256 15 -176 0 -245 -3 -256
-12 -13 -11 -15 -180 -15 -1336 0 -1298 0 -1323 19 -1334 12 -6 113 -10 259
-10 204 0 241 2 252 15 10 13 13 133 14 558 l1 542 323 3 c177 1 323 -1 323
-5 1 -5 2 -249 3 -544 1 -433 4 -540 15 -553 12 -14 45 -16 257 -16 200 0 245
3 257 15 13 13 15 223 16 1657 0 904 0 1650 1 1658 0 14 45 15 361 15 308 0
362 2 373 15 10 12 12 171 12 717 -1 386 -5 705 -9 710 -5 4 -99 8 -210 9
-209 1 -279 10 -350 46 -58 29 -112 91 -143 166 -51 122 -83 162 -169 208 -64
34 -168 42 -235 18z"/>
<path d="M1931 3782 c-13 -2 -30 -9 -36 -16 -9 -8 -12 -334 -11 -1334 1 -1164
3 -1324 16 -1332 8 -5 122 -10 256 -10 213 0 243 2 255 17 12 13 14 163 14
881 0 568 3 866 10 868 6 2 34 -38 64 -89 30 -50 70 -117 90 -147 19 -30 35
-57 36 -60 0 -3 12 -23 26 -45 14 -22 56 -91 94 -154 38 -62 74 -115 81 -118
33 -13 134 -8 151 6 18 15 73 95 73 105 0 3 18 32 40 65 22 33 40 64 40 69 0
4 9 18 20 30 12 12 18 22 15 22 -3 0 7 19 22 43 16 23 60 95 98 159 39 65 75
116 80 115 7 -3 10 -303 10 -874 0 -479 4 -875 8 -880 5 -4 122 -9 261 -11
l252 -3 11 23 c6 15 9 460 9 1330 -1 1205 -2 1309 -18 1324 -14 14 -44 17
-230 16 -117 0 -228 -1 -246 -1 -28 -1 -37 -8 -69 -58 -21 -32 -38 -60 -38
-63 0 -3 -8 -16 -17 -30 -44 -68 -98 -161 -98 -170 0 -6 -4 -10 -10 -10 -5 0
-10 -7 -10 -15 0 -8 -4 -15 -10 -15 -5 0 -10 -4 -10 -9 0 -12 -63 -115 -72
-119 -5 -2 -8 -8 -8 -14 0 -6 -18 -39 -40 -74 -22 -35 -40 -68 -40 -74 0 -5
-4 -10 -10 -10 -5 0 -10 -4 -10 -10 0 -5 -18 -37 -39 -71 l-39 -62 -36 59
c-20 32 -68 110 -106 172 -39 61 -70 114 -70 117 0 3 -5 11 -10 18 -6 7 -58
91 -116 187 -143 235 -152 250 -167 251 -57 2 -447 3 -466 1z"/>
<path d="M5132 3776 c-9 -5 -19 -11 -22 -13 -3 -3 -6 -183 -7 -401 -1 -218 -2
-408 -2 -421 -1 -23 -5 -21 -51 25 -51 51 -133 99 -185 108 -16 3 -43 10 -60
14 -34 10 -212 8 -265 -2 -19 -4 -64 -19 -100 -33 -218 -86 -356 -326 -397
-688 -7 -67 -8 -478 0 -540 41 -341 166 -589 352 -694 90 -51 149 -66 270 -65
186 0 279 32 387 134 23 22 44 38 46 36 2 -3 5 -32 6 -66 2 -40 7 -65 17 -71
8 -5 123 -9 255 -9 212 0 243 2 255 16 12 14 14 234 14 1331 0 1219 -1 1315
-17 1330 -14 12 -56 15 -248 16 -127 1 -239 -2 -248 -7z m-196 -1165 c64 -29
112 -102 133 -201 21 -98 26 -171 24 -375 -1 -168 -4 -213 -22 -279 -33 -123
-87 -198 -160 -221 -40 -12 -123 -9 -162 8 -53 22 -110 87 -126 142 -1 6 -10
35 -18 65 -17 60 -28 193 -28 335 0 327 61 496 192 535 47 15 125 10 167 -9z"/>
<path d="M5833 3782 c-12 -2 -27 -9 -33 -17 -17 -20 -16 -2640 0 -2660 10 -12
55 -15 252 -15 146 0 247 4 259 10 15 9 19 22 19 70 0 65 9 79 31 48 38 -55
177 -132 266 -146 51 -9 230 -8 272 1 128 28 240 110 322 235 43 65 105 203
112 249 1 10 5 23 8 28 4 6 10 28 14 50 9 52 14 74 20 105 13 61 20 179 20
360 0 228 -5 287 -39 449 -61 287 -228 482 -456 533 -68 15 -200 17 -285 4
-71 -11 -187 -69 -231 -116 -20 -21 -41 -37 -46 -34 -4 3 -8 189 -8 413 0 349
-2 410 -15 421 -10 9 -78 13 -237 14 -123 0 -233 0 -245 -2z m901 -1205 c32
-29 95 -127 81 -127 -4 0 -3 -6 2 -12 4 -7 8 -17 9 -23 1 -5 5 -23 9 -40 20
-94 27 -363 12 -500 -24 -225 -100 -337 -234 -346 -100 -7 -171 32 -217 121
-14 27 -26 52 -25 55 0 3 -8 40 -17 83 -19 83 -26 395 -12 522 14 117 46 208
92 258 73 81 215 85 300 9z"/>
</g>
</svg>
