<?xml version="1.0" encoding="UTF-8" standalone="no"?>
<svg
   xmlns:dc="http://purl.org/dc/elements/1.1/"
   xmlns:cc="http://creativecommons.org/ns#"
   xmlns:rdf="http://www.w3.org/1999/02/22-rdf-syntax-ns#"
   xmlns:svg="http://www.w3.org/2000/svg"
   xmlns="http://www.w3.org/2000/svg"
   width="48.87294mm"
   height="34.880005mm"
   viewBox="0 0 48.87294 34.880005"
   version="1.1"
   id="svg1032">
  <defs
     id="defs1026" />
  <metadata
     id="metadata1029">
    <rdf:RDF>
      <cc:Work
         rdf:about="">
        <dc:format>image/svg+xml</dc:format>
        <dc:type
           rdf:resource="http://purl.org/dc/dcmitype/StillImage" />
        <dc:title></dc:title>
      </cc:Work>
    </rdf:RDF>
  </metadata>
  <g
     id="layer1"
     transform="translate(-81.663551,-86.851096)">
    <path
       id="path1003"
       style="fill:#efefef;fill-opacity:1;stroke:none;stroke-width:0.344223;stroke-miterlimit:4;stroke-dasharray:none;stroke-opacity:1"
       d="m 91.353411,86.851102 c -0.776341,7e-6 -1.456664,0.431278 -1.797315,1.071252 -0.05281,0.09922 -0.119618,0.268886 -0.159173,0.374137 -0.22016,0.585909 -0.587137,1.482556 -2.309416,1.547709 -0.11221,0.0042 -0.294243,0.0036 -0.406691,0.0036 h -1.842267 a 0.20359408,0.20359408 0 0 0 -0.203597,0.203605 v 9.174633 a 0.20359408,0.20359408 0 0 0 0.203597,0.203605 h 4.724267 v 5.134577 6.34638 c 0,0.0847 -0.04246,0.12712 -0.127132,0.12712 h -4.063815 c -0.08467,0 -0.127132,-0.0425 -0.127132,-0.12712 v -6.85798 c 0,-0.0847 -0.03408,-0.15229 -0.101811,-0.20309 -0.0508,-0.0677 -0.118428,-0.10181 -0.203095,-0.10181 h -2.971905 c -0.08467,0 -0.160682,0.0341 -0.228415,0.10181 -0.0508,0.0508 -0.07596,0.11842 -0.07596,0.20309 v 17.17052 c 0,0.0847 0.02513,0.16068 0.07596,0.22841 0.06773,0.0508 0.143748,0.0765 0.228415,0.0765 h 2.971905 c 0.08467,0 0.152295,-0.0257 0.203095,-0.0765 0.06773,-0.0677 0.101811,-0.14374 0.101811,-0.22841 v -6.95978 c 0,-0.0847 0.04247,-0.12712 0.127132,-0.12712 h 4.063815 c 0.08467,0 0.127132,0.0425 0.127132,0.12712 v 6.95978 c 0,0.0847 0.02514,0.16068 0.07596,0.22841 0.06773,0.0508 0.144251,0.0765 0.228918,0.0765 h 2.971403 c 0.08467,0 0.152797,-0.0257 0.203597,-0.0765 0.06773,-0.0677 0.101309,-0.14374 0.101309,-0.22841 v -17.17052 -4.622982 h 4.724241 a 0.20359408,0.20359408 0 0 0 0.203623,-0.203605 V 90.0514 a 0.20359408,0.20359408 0 0 0 -0.203623,-0.203605 h -1.842267 c -0.112422,0 -0.294455,5.29e-4 -0.406691,-0.0036 -1.722253,-0.06515 -2.089256,-0.9618 -2.309416,-1.547709 -0.03956,-0.105251 -0.105833,-0.274921 -0.158644,-0.374137 -0.340651,-0.639974 -1.021477,-1.071245 -1.797817,-1.071253 z m 3.047867,16.896638 c -0.08467,0 -0.160681,0.0341 -0.228414,0.10181 -0.0508,0.0508 -0.07646,0.11842 -0.07646,0.20309 v 17.17052 c 0,0.0847 0.02566,0.16068 0.07646,0.22841 0.06773,0.0508 0.143748,0.0765 0.228414,0.0765 h 2.971906 c 0.08467,0 0.152294,-0.0257 0.203094,-0.0765 0.06773,-0.0677 0.101812,-0.14374 0.101812,-0.22841 V 109.9453 c 0,-0.0677 0.01667,-0.10129 0.05064,-0.10129 0.03387,-0.0169 0.06792,-1.6e-4 0.101785,0.0506 l 2.336825,3.86075 c 0.0677,0.13547 0.18619,0.20309 0.35552,0.20309 h 0.58396 c 0.16934,0 0.28779,-0.0676 0.35552,-0.20309 l 2.3368,-3.86075 c 0.0339,-0.0508 0.0679,-0.0676 0.10182,-0.0506 0.0339,0 0.0506,0.0336 0.0506,0.10129 v 11.27786 c 0,0.0847 0.0257,0.16068 0.0765,0.22841 0.0677,0.0508 0.14374,0.0765 0.22841,0.0765 h 2.97191 c 0.0847,0 0.15229,-0.0257 0.20309,-0.0765 0.0677,-0.0677 0.10179,-0.14374 0.10179,-0.22841 v -17.17052 c 0,-0.0847 -0.034,-0.15229 -0.10179,-0.20309 -0.0508,-0.0677 -0.11843,-0.10181 -0.20309,-0.10181 h -2.94659 c -0.16933,0 -0.28781,0.0676 -0.35555,0.20309 l -3.02254,5.00383 c -0.0508,0.1016 -0.10166,0.1016 -0.15246,0 l -3.047862,-5.00383 c -0.06773,-0.13546 -0.186214,-0.20309 -0.355548,-0.20309 z m 21.267442,0 c -0.0847,0 -0.16121,0.0341 -0.22894,0.10181 -0.0508,0.0508 -0.076,0.11842 -0.076,0.20309 v 5.23223 c 0,0.0508 -0.0172,0.0849 -0.0511,0.10181 -0.0339,0.0169 -0.0674,1.5e-4 -0.10128,-0.0507 -0.32174,-0.38946 -0.69445,-0.66047 -1.11779,-0.81287 -0.42333,-0.16933 -0.93125,-0.25425 -1.52392,-0.25425 -2.1844,0 -3.53891,1.31257 -4.06384,3.93723 -0.1524,0.8636 -0.22892,1.75262 -0.22892,2.66702 0,1.03294 0.0849,1.9728 0.25424,2.81947 0.59267,2.6924 1.92201,4.03851 3.98788,4.03851 1.1684,0 2.06581,-0.37269 2.69235,-1.11776 0.0339,-0.0508 0.0674,-0.0676 0.10128,-0.0506 0.0339,0.0169 0.0511,0.0505 0.0511,0.10128 v 0.55914 c 0,0.0847 0.0251,0.16068 0.076,0.22841 0.0677,0.0508 0.14428,0.0765 0.22894,0.0765 h 2.97138 c 0.0847,0 0.15282,-0.0257 0.20362,-0.0765 0.0677,-0.0677 0.10129,-0.14374 0.10129,-0.22841 v -17.17052 c 0,-0.0847 -0.0335,-0.15229 -0.10129,-0.20309 -0.0508,-0.0677 -0.11895,-0.10181 -0.20362,-0.10181 z m 4.52996,0 c -0.0847,0 -0.16068,0.0341 -0.22841,0.10181 -0.0508,0.0508 -0.0765,0.11842 -0.0765,0.20309 v 17.17052 c 0,0.0847 0.0257,0.16068 0.0765,0.22841 0.0677,0.0508 0.14374,0.0765 0.22841,0.0765 h 2.97191 c 0.0847,0 0.15229,-0.0257 0.20309,-0.0765 0.0677,-0.0677 0.10179,-0.14374 0.10179,-0.22841 v -0.5333 c 0,-0.0508 0.0167,-0.0849 0.0506,-0.1018 0.0339,-0.0169 0.0679,-1.6e-4 0.10181,0.0506 0.62653,0.72814 1.52394,1.09244 2.69234,1.09244 2.0828,0 3.40323,-1.34611 3.96203,-4.03851 0.16934,-0.74507 0.25424,-1.68493 0.25424,-2.81947 0,-1.03293 -0.076,-1.92195 -0.22841,-2.66702 -0.23707,-1.27 -0.69467,-2.24393 -1.372,-2.92127 -0.67733,-0.67733 -1.56636,-1.01596 -2.66703,-1.01596 -0.57573,0 -1.08365,0.0849 -1.52392,0.25425 -0.42333,0.1524 -0.79552,0.4145 -1.11725,0.78703 -0.0339,0.0508 -0.0679,0.0681 -0.10181,0.0512 -0.0339,-0.0169 -0.0506,-0.051 -0.0506,-0.1018 v -5.20691 c 0,-0.0847 -0.0341,-0.15229 -0.10179,-0.20309 -0.0508,-0.0677 -0.11843,-0.10181 -0.20309,-0.10181 z m -6.56241,7.59489 c 0.77894,0 1.2785,0.46548 1.49863,1.39681 0.13547,0.59267 0.2036,1.33754 0.2036,2.23501 0,0.98213 -0.0597,1.71913 -0.17828,2.2102 -0.254,0.98213 -0.76195,1.47278 -1.52395,1.47278 -0.82973,0 -1.35442,-0.49955 -1.57456,-1.49862 -0.11853,-0.49107 -0.17777,-1.21916 -0.17777,-2.18436 0,-1.016 0.076,-1.76926 0.22841,-2.26033 0.11854,-0.44027 0.30512,-0.77889 0.55912,-1.01596 0.254,-0.23706 0.57534,-0.35553 0.9648,-0.35553 z m 11.54092,0 c 0.762,0 1.27831,0.45709 1.54924,1.37149 0.1524,0.49107 0.22894,1.24433 0.22894,2.26033 0,0.89746 -0.0682,1.62556 -0.20362,2.18436 -0.22013,0.99907 -0.74483,1.49862 -1.57456,1.49862 -0.77894,0 -1.2785,-0.49065 -1.49863,-1.47278 -0.13547,-0.49107 -0.20309,-1.22807 -0.20309,-2.2102 0,-0.89747 0.0676,-1.64234 0.20309,-2.23501 0.22013,-0.93133 0.71969,-1.39681 1.49863,-1.39681 z" />
    <g
       aria-label="HMdb"
       id="g1011"
       style="font-style:normal;font-weight:normal;font-size:25.4px;line-height:1.25;font-family:sans-serif;letter-spacing:-1.5875px;fill:#000000;fill-opacity:1;stroke:none;stroke-width:0.264583"
       transform="translate(-370.45411,186.29553)" />
  </g>
</svg>
